<svg xmlns="http://www.w3.org/2000/svg" version="1.1" xmlns:xlink="http://www.w3.org/1999/xlink" xmlns:svgjs="http://svgjs.dev/svgjs" viewBox="0 0 800 800" opacity="0.52"><defs><filter id="bbburst-blur-1" x="-100%" y="-100%" width="400%" height="400%"><feGaussianBlur in="SourceGraphic" stdDeviation="1"></feGaussianBlur></filter><filter id="bbburst-blur-2" x="-100%" y="-100%" width="400%" height="400%"><feGaussianBlur in="SourceGraphic" stdDeviation="2"></feGaussianBlur></filter><filter id="bbburst-blur-3" x="-100%" y="-100%" width="400%" height="400%"><feGaussianBlur in="SourceGraphic" stdDeviation="4"></feGaussianBlur></filter><filter id="bbburst-blur-4" x="-100%" y="-100%" width="400%" height="400%"><feGaussianBlur in="SourceGraphic" stdDeviation="12"></feGaussianBlur></filter><symbol id="bbburst-shape-6" viewBox="0 0 133 116"><path d="M59.7487 10.2513c-13.6683-13.66839-35.8291-13.66839-49.4974 0-13.66839 13.6683-13.66839 35.8291 0 49.4974l49.4974-49.4974ZM66.5 66.5 41.7513 91.2487 66.5 115.997l24.7487-24.7483L66.5 66.5Zm56.249-6.7513c13.668-13.6683 13.668-35.8291 0-49.4974-13.669-13.66839-35.8294-13.66839-49.4977 0l49.4977 49.4974Zm-112.4977 0 31.5 31.5 49.4974-49.4974-31.5-31.5-49.4974 49.4974Zm80.9974 31.5 31.5003-31.5-49.4977-49.4974-31.5 31.5 49.4974 49.4974Z"></path></symbol><symbol id="bbburst-shape-7" viewBox="0 0 139 124"><path fill-rule="evenodd" clip-rule="evenodd" d="M70.1641 15.0917C54.6093.764854 37.8293-2.10782 24.4032 2.82615 10.3804 7.97941.763366 21.4591 1.00047 37.0608c.1068 7.0273 2.86132 13.7317 7.0039 20.2001C12.1442 63.7249 17.853 70.2322 24.25 76.9024c3.8209 3.9842 7.8871 8.0312 12.0767 12.201h.0001c10.0335 9.9862 20.7748 20.6766 30.5497 32.8956 1.38 1.725 3.8972 2.005 5.6223.624.6706-.536 1.1228-1.244 1.3439-2.011 9.5768-11.748 20.0328-22.0735 29.8163-31.7351 4.19-4.1373 8.256-8.1528 12.078-12.1062 6.396-6.6176 12.106-13.0752 16.247-19.4911 4.144-6.4196 6.905-13.0811 7.012-20.0691.237-15.5124-9.399-28.8902-23.411-33.99923-13.32-4.85681-29.9542-2.08621-45.4209 11.88043Zm-3.7351 7.4919C52.1278 8.44857 37.6826 6.46918 27.1626 10.3352 16.2859 14.3323 8.8148 24.7824 8.99955 36.9392c.07575 4.9844 2.03755 10.2234 5.74165 16.0072 3.707 5.7881 8.9752 11.8418 15.2827 18.4187 3.5798 3.7328 7.4978 7.6329 11.6 11.7163 9.0476 9.0063 18.9911 18.9046 28.1786 29.8666 9.2999-11.068 19.4036-21.0473 28.5839-30.1144l.0007-.0006c4.1019-4.0508 8.0189-7.9196 11.5979-11.6222 6.307-6.5252 11.573-12.5298 15.278-18.2697 3.703-5.7362 5.658-10.924 5.734-15.8531.184-12.0276-7.267-22.3914-18.153-26.3608-10.71-3.90518-25.4722-1.80041-40.0023 12.867-1.5547 1.5694-4.0874 1.5813-5.6568.0265-.3146-.3116-.5666-.6625-.7559-1.0371Z"></path></symbol><symbol id="bbburst-shape-10" viewBox="0 0 145 145"><circle cx="72.5" cy="72.5" r="61.5" fill="none" stroke-width="22"></circle></symbol></defs><use xlink:href="#bbburst-shape-7" width="38.66793402214581" opacity="0.49557962199399785" transform="matrix(0.9334151828604437,-0.35879812765063923,0.35879812765063923,0.9334151828604437,465.09145800178834,43.08548212626238)" fill=" rgba(228, 222, 222, 0.849)" filter="url(#bbburst-blur-2)"></use><use xlink:href="#bbburst-shape-6" width="47.452739477726574" opacity="0.1410618126283072" transform="matrix(1.029119454560685,0.7095161367049506,-0.7095161367049506,1.029119454560685,310.2110984162394,137.27231280084254)" fill=" rgba(228, 222, 222, 0.849)" filter="url(#bbburst-blur-3)"></use><use xlink:href="#bbburst-shape-7" width="45.67553238114146" opacity="0.44780664355343025" transform="matrix(0.9609292256874421,-0.2767941892810124,0.2767941892810124,0.9609292256874421,99.10928200977764,-161.04840180625564)" fill=" rgba(228, 222, 222, 0.849)" filter="url(#bbburst-blur-2)"></use><use xlink:href="#bbburst-shape-7" width="30.855077381233354" opacity="0.19871274889671353" transform="matrix(1.2478326448519508,-0.07357778497471211,0.07357778497471211,1.2478326448519508,313.0104818873219,-456.55592118523214)" fill=" rgba(228, 222, 222, 0.849)" filter="url(#bbburst-blur-3)"></use><use xlink:href="#bbburst-shape-6" width="40.386423123089166" opacity="0.536203321839732" transform="matrix(0.7964462520811437,0.6047093248378921,-0.6047093248378921,0.7964462520811437,751.9690132915382,-97.0443341969555)" fill=" rgba(228, 222, 222, 0.849)" filter="url(#bbburst-blur-2)"></use><use xlink:href="#bbburst-shape-6" width="48.368762342129344" opacity="0.4801036140748397" transform="matrix(0.8827176321363918,0.46990380070342247,-0.46990380070342247,0.8827176321363918,553.6532641391619,269.14322388655546)" fill=" rgba(228, 222, 222, 0.849)" filter="url(#bbburst-blur-2)"></use><use xlink:href="#bbburst-shape-10" width="30.51194310398425" opacity="0.6118324145340732" transform="matrix(0.9928582011648291,0.11930042908447439,-0.11930042908447439,0.9928582011648291,593.1766325317917,-67.65123825688494)" fill="none" stroke=" rgba(228, 222, 222, 0.849)" filter="url(#bbburst-blur-1)"></use><use xlink:href="#bbburst-shape-10" width="36.38477442200077" opacity="0.5787182778423305" transform="matrix(0.9685282255786828,-0.24890374898222836,0.24890374898222836,0.9685282255786828,445.928354117921,113.7324835050394)" fill="none" stroke=" rgba(228, 222, 222, 0.849)" filter="url(#bbburst-blur-1)"></use><use xlink:href="#bbburst-shape-10" width="44.75826084786967" opacity="0.194677302575457" transform="matrix(0.8931998224945918,0.8744678822550488,-0.8744678822550488,0.8931998224945918,473.66587008079375,279.52216336531075)" fill="none" stroke=" rgba(228, 222, 222, 0.849)" filter="url(#bbburst-blur-3)"></use><use xlink:href="#bbburst-shape-6" width="34.100836206264646" opacity="0.5564872615294713" transform="matrix(0.9326611128304111,-0.3607537229384322,0.3607537229384322,0.9326611128304111,327.56892784856245,212.33102066602157)" fill=" rgba(228, 222, 222, 0.849)" filter="url(#bbburst-blur-1)"></use><use xlink:href="#bbburst-shape-7" width="45.25525236359209" opacity="0.35791653016805525" transform="matrix(0.8438824811613538,0.5365280589018223,-0.5365280589018223,0.8438824811613538,873.0129499281114,-29.84856075908999)" fill=" rgba(228, 222, 222, 0.849)" filter="url(#bbburst-blur-2)"></use><use xlink:href="#bbburst-shape-7" width="33.99331206800305" opacity="0.2242985876177268" transform="matrix(0.9714665135294143,-0.7866084242436032,0.7866084242436032,0.9714665135294143,417.50648396264967,10.966736607460234)" fill=" rgba(228, 222, 222, 0.849)" filter="url(#bbburst-blur-3)"></use><use xlink:href="#bbburst-shape-6" width="33.793777001559974" opacity="0.6171986298019485" transform="matrix(0.8662333125100592,0.4996397184950874,-0.4996397184950874,0.8662333125100592,431.7693175543412,123.33917923956767)" fill=" rgba(228, 222, 222, 0.849)" filter="url(#bbburst-blur-1)"></use><use xlink:href="#bbburst-shape-10" width="33.35567597960959" opacity="0.4002520412939551" transform="matrix(0.7241663881844737,0.6896252911718466,-0.6896252911718466,0.7241663881844737,448.06954387225323,261.03853721583215)" fill="none" stroke=" rgba(228, 222, 222, 0.849)" filter="url(#bbburst-blur-2)"></use><use xlink:href="#bbburst-shape-10" width="42.80453073855009" opacity="0.06071208939153383" transform="matrix(1.7489198419161156,0.06147671552798889,-0.06147671552798889,1.7489198419161156,628.4297610492991,-647.938208835347)" fill="none" stroke=" rgba(228, 222, 222, 0.849)" filter="url(#bbburst-blur-4)"></use><use xlink:href="#bbburst-shape-7" width="44.53805174117488" opacity="0.6025886298706572" transform="matrix(0.9268484104895938,0.37543577875971473,-0.37543577875971473,0.9268484104895938,372.8829659334217,-65.70081257254992)" fill=" rgba(228, 222, 222, 0.849)" filter="url(#bbburst-blur-1)"></use><use xlink:href="#bbburst-shape-6" width="35.593747842525225" opacity="0.20949144690937416" transform="matrix(1.231122569110554,0.2164190837856706,-0.2164190837856706,1.231122569110554,508.31302158963945,256.7398301020103)" fill=" rgba(228, 222, 222, 0.849)" filter="url(#bbburst-blur-3)"></use><use xlink:href="#bbburst-shape-6" width="52.91695377647" opacity="0.2248543784718957" transform="matrix(1.1394920543676332,0.5138656030841439,-0.5138656030841439,1.1394920543676332,504.7400780075451,272.1921654457577)" fill=" rgba(228, 222, 222, 0.849)" filter="url(#bbburst-blur-3)"></use><use xlink:href="#bbburst-shape-10" width="31.393033076283047" opacity="0.3991304332034318" transform="matrix(0.9344968372295092,0.35597143313480134,-0.35597143313480134,0.9344968372295092,719.8249218660469,210.89578908689748)" fill="none" stroke=" rgba(228, 222, 222, 0.849)" filter="url(#bbburst-blur-2)"></use><use xlink:href="#bbburst-shape-7" width="45.65918403736115" opacity="0.5266594174339937" transform="matrix(0.712972285418936,-0.7011922134653944,0.7011922134653944,0.712972285418936,-109.80274702549241,125.03071168024081)" fill=" rgba(228, 222, 222, 0.849)" filter="url(#bbburst-blur-2)"></use><use xlink:href="#bbburst-shape-10" width="30.249120256736155" opacity="0.5968275682788855" transform="matrix(0.9832286700527695,0.18237703360418514,-0.18237703360418514,0.9832286700527695,362.2041933355967,157.97553752766936)" fill="none" stroke=" rgba(228, 222, 222, 0.849)" filter="url(#bbburst-blur-1)"></use><use xlink:href="#bbburst-shape-6" width="32.830244763969" opacity="0.1069064878541105" transform="matrix(1.5653321835375593,0.7824545706822449,-0.7824545706822449,1.5653321835375593,872.5253463775066,117.68004163189403)" fill=" rgba(228, 222, 222, 0.849)" filter="url(#bbburst-blur-4)"></use><use xlink:href="#bbburst-shape-6" width="39.16197805634954" opacity="0.10588569348045507" transform="matrix(1.7390136758141508,0.19578415495477586,-0.19578415495477586,1.7390136758141508,783.43248741031,-82.98968311133558)" fill=" rgba(228, 222, 222, 0.849)" filter="url(#bbburst-blur-4)"></use><use xlink:href="#bbburst-shape-10" width="42.06539686985235" opacity="0.7998730151275748" transform="matrix(0.9475002083958031,0.3197551486526993,-0.3197551486526993,0.9475002083958031,455.78260342535236,87.6666440658816)" fill="none" stroke=" rgba(228, 222, 222, 0.849)"></use><use xlink:href="#bbburst-shape-7" width="40.46005984517977" opacity="0.417190870717973" transform="matrix(0.9343830824658754,0.35626991902428273,-0.35626991902428273,0.9343830824658754,739.2079132575991,-130.16091647109414)" fill=" rgba(228, 222, 222, 0.849)" filter="url(#bbburst-blur-2)"></use><use xlink:href="#bbburst-shape-10" width="48.37609803343962" opacity="0.3489838897013787" transform="matrix(0.9636664158112388,0.2671086652235764,-0.2671086652235764,0.9636664158112388,585.1667409395677,282.8357446789854)" fill="none" stroke=" rgba(228, 222, 222, 0.849)" filter="url(#bbburst-blur-2)"></use><use xlink:href="#bbburst-shape-7" width="31.121039519112678" opacity="0.9410528159613374" transform="matrix(0.9311574524462612,0.3646173319437638,-0.3646173319437638,0.9311574524462612,505.56804493312256,15.20322356888721)" fill=" rgba(228, 222, 222, 0.849)"></use><use xlink:href="#bbburst-shape-6" width="40.8571592038745" opacity="0.7042736411603236" transform="matrix(0.9981451043024615,0.0608798058228521,-0.0608798058228521,0.9981451043024615,411.8166732710835,132.34353160565757)" fill=" rgba(228, 222, 222, 0.849)" filter="url(#bbburst-blur-1)"></use><use xlink:href="#bbburst-shape-6" width="51.433979858212716" opacity="0.13246531451159116" transform="matrix(1.241875439106384,0.14228630905440684,-0.14228630905440684,1.241875439106384,71.62031194384636,-266.37183959312586)" fill=" rgba(228, 222, 222, 0.849)" filter="url(#bbburst-blur-3)"></use><use xlink:href="#bbburst-shape-6" width="43.291054790054844" opacity="0.2200506100342492" transform="matrix(0.8905205445561827,-0.8771961922645126,0.8771961922645126,0.8905205445561827,-321.1089034565433,58.834058906852135)" fill=" rgba(228, 222, 222, 0.849)" filter="url(#bbburst-blur-3)"></use><use xlink:href="#bbburst-shape-6" width="34.66087273682394" opacity="0.1810425466648159" transform="matrix(1.0526912653881904,0.6740482918718886,-0.6740482918718886,1.0526912653881904,1005.6286255604689,68.8281373388379)" fill=" rgba(228, 222, 222, 0.849)" filter="url(#bbburst-blur-3)"></use><use xlink:href="#bbburst-shape-10" width="33.83869842611318" opacity="0.7514445036268571" transform="matrix(0.9938793967106716,-0.11047056075729592,0.11047056075729592,0.9938793967106716,227.15583105489475,5.799570448374027)" fill="none" stroke=" rgba(228, 222, 222, 0.849)" filter="url(#bbburst-blur-1)"></use><use xlink:href="#bbburst-shape-10" width="45.25592373632284" opacity="0.2111649044962497" transform="matrix(1.1858654424279242,-0.39525074630571355,0.39525074630571355,1.1858654424279242,481.37229081227247,-300.11243249603746)" fill="none" stroke=" rgba(228, 222, 222, 0.849)" filter="url(#bbburst-blur-3)"></use><use xlink:href="#bbburst-shape-7" width="46.81195776893884" opacity="0.3807681645983986" transform="matrix(0.7712112802862126,-0.6365792654173563,0.6365792654173563,0.7712112802862126,-3.883027870991043,352.41913117905915)" fill=" rgba(228, 222, 222, 0.849)" filter="url(#bbburst-blur-2)"></use><use xlink:href="#bbburst-shape-6" width="41.87334371539319" opacity="0.3546123345305573" transform="matrix(0.7894197883444284,0.6138537266892153,-0.6138537266892153,0.7894197883444284,665.0934746103762,-216.79416264067163)" fill=" rgba(228, 222, 222, 0.849)" filter="url(#bbburst-blur-2)"></use><use xlink:href="#bbburst-shape-7" width="40.531390232887965" opacity="0.2910827100750064" transform="matrix(1.195520495562913,0.36500786935216467,-0.36500786935216467,1.195520495562913,394.0904579067136,-378.09333895958247)" fill=" rgba(228, 222, 222, 0.849)" filter="url(#bbburst-blur-3)"></use><use xlink:href="#bbburst-shape-6" width="34.8096575034774" opacity="0.735799930484879" transform="matrix(0.8080707363788289,-0.5890854649439055,0.5890854649439055,0.8080707363788289,234.13855472721738,171.32337438868473)" fill=" rgba(228, 222, 222, 0.849)" filter="url(#bbburst-blur-1)"></use><use xlink:href="#bbburst-shape-6" width="36.282048140745964" opacity="-0.06028701227851929" transform="matrix(1.2725134090881078,1.201336598831053,-1.201336598831053,1.2725134090881078,1209.6001255577148,-452.7333001776732)" fill=" rgba(228, 222, 222, 0.849)" filter="url(#bbburst-blur-4)"></use><use xlink:href="#bbburst-shape-6" width="31.493756626545775" opacity="0.7769924521016897" transform="matrix(0.9995398400264397,-0.030333285346616688,0.030333285346616688,0.9995398400264397,372.36602549948964,-99.69104198924782)" fill=" rgba(228, 222, 222, 0.849)" filter="url(#bbburst-blur-1)"></use><use xlink:href="#bbburst-shape-7" width="32.48751326122951" opacity="0.0918001596038377" transform="matrix(1.5495424722048847,-0.8132761688585094,0.8132761688585094,1.5495424722048847,-157.32170453988587,-559.1222303989539)" fill=" rgba(228, 222, 222, 0.849)" filter="url(#bbburst-blur-4)"></use><use xlink:href="#bbburst-shape-10" width="55.16775750644527" opacity="0.222716953772369" transform="matrix(1.151675988756425,0.48594487024961047,-0.48594487024961047,1.151675988756425,304.9394406117069,-310.6121168797039)" fill="none" stroke=" rgba(228, 222, 222, 0.849)" filter="url(#bbburst-blur-3)"></use><use xlink:href="#bbburst-shape-10" width="38.75098307579516" opacity="0.19880253521904645" transform="matrix(1.0414817121582223,-0.6912422464230452,0.6912422464230452,1.0414817121582223,340.47670560966765,268.3641050343715)" fill="none" stroke=" rgba(228, 222, 222, 0.849)" filter="url(#bbburst-blur-3)"></use><use xlink:href="#bbburst-shape-10" width="29.956532982196926" opacity="0.8920564848758775" transform="matrix(0.7123976019326569,0.7017760730892724,-0.7017760730892724,0.7123976019326569,699.7580981618869,142.9525214771744)" fill="none" stroke=" rgba(228, 222, 222, 0.849)"></use><use xlink:href="#bbburst-shape-6" width="41.215588777082026" opacity="0.3710896700046564" transform="matrix(0.9360512124159661,0.3518637914514648,-0.3518637914514648,0.9360512124159661,255.8267605185929,-79.3230637066568)" fill=" rgba(228, 222, 222, 0.849)" filter="url(#bbburst-blur-2)"></use><use xlink:href="#bbburst-shape-10" width="42.68951014646111" opacity="0.5700633193993272" transform="matrix(0.9359435979705751,-0.35214994166958824,0.35214994166958824,0.9359435979705751,274.0010120966564,-157.1698587698855)" fill="none" stroke=" rgba(228, 222, 222, 0.849)" filter="url(#bbburst-blur-1)"></use><use xlink:href="#bbburst-shape-10" width="34.5247879087686" opacity="0.6381202365827986" transform="matrix(0.9867990395465391,0.16194954631004,-0.16194954631004,0.9867990395465391,375.87846678513404,-143.6451387126923)" fill="none" stroke=" rgba(228, 222, 222, 0.849)" filter="url(#bbburst-blur-1)"></use><use xlink:href="#bbburst-shape-7" width="34.289963876043664" opacity="0.16933726282788708" transform="matrix(1.1965262988929601,0.36169713305127915,-0.36169713305127915,1.1965262988929601,640.0191678183437,-440.2142038213304)" fill=" rgba(228, 222, 222, 0.849)" filter="url(#bbburst-blur-3)"></use><use xlink:href="#bbburst-shape-6" width="51.207153922476635" opacity="0.3724850635166931" transform="matrix(0.9673842278757925,0.25331355205980766,-0.25331355205980766,0.9673842278757925,203.9480788227459,80.20857810106537)" fill=" rgba(228, 222, 222, 0.849)" filter="url(#bbburst-blur-2)"></use><use xlink:href="#bbburst-shape-10" width="48.07933024986566" opacity="-0.06436331161657538" transform="matrix(1.472033999549617,-0.9463698559072757,0.9463698559072757,1.472033999549617,321.13891857775144,176.1814656384031)" fill="none" stroke=" rgba(228, 222, 222, 0.849)" filter="url(#bbburst-blur-4)"></use><use xlink:href="#bbburst-shape-10" width="45.84295061305374" opacity="0.47115363828717927" transform="matrix(0.9929733181518736,-0.11833845291560172,0.11833845291560172,0.9929733181518736,275.2210833614399,-226.08997934759805)" fill="none" stroke=" rgba(228, 222, 222, 0.849)" filter="url(#bbburst-blur-2)"></use><use xlink:href="#bbburst-shape-10" width="39.664052951331335" opacity="0.37158725671001114" transform="matrix(0.9582428296948275,0.2859557296828474,-0.2859557296828474,0.9582428296948275,756.9309825423989,118.53993005975167)" fill="none" stroke=" rgba(228, 222, 222, 0.849)" filter="url(#bbburst-blur-2)"></use><use xlink:href="#bbburst-shape-10" width="30.04717453792276" opacity="0.7220887209085558" transform="matrix(0.9961596789243821,0.08755509171528525,-0.08755509171528525,0.9961596789243821,544.8434228558001,8.476305784390775)" fill="none" stroke=" rgba(228, 222, 222, 0.849)" filter="url(#bbburst-blur-1)"></use><use xlink:href="#bbburst-shape-10" width="31.526385777036054" opacity="0.7095274707459478" transform="matrix(0.8589165397818664,0.5121155901641206,-0.5121155901641206,0.8589165397818664,668.3094404371391,-57.263115210824424)" fill="none" stroke=" rgba(228, 222, 222, 0.849)" filter="url(#bbburst-blur-1)"></use><use xlink:href="#bbburst-shape-10" width="27.21073436959692" opacity="0.787712390386521" transform="matrix(0.737557121428315,-0.6752847492949754,0.6752847492949754,0.737557121428315,50.312743729351894,48.66464204310773)" fill="none" stroke=" rgba(228, 222, 222, 0.849)"></use><use xlink:href="#bbburst-shape-10" width="40.25559606850986" opacity="0.10379345826683117" transform="matrix(1.5753022151239302,-0.7621830036320925,0.7621830036320925,1.5753022151239302,-134.1201127178072,136.82126903036328)" fill="none" stroke=" rgba(228, 222, 222, 0.849)" filter="url(#bbburst-blur-4)"></use><use xlink:href="#bbburst-shape-10" width="46.39958998595183" opacity="-0.05568016188019431" transform="matrix(1.2484225425307212,-1.2263527858251595,1.2263527858251595,1.2484225425307212,-460.8298488985583,259.4987084054826)" fill="none" stroke=" rgba(228, 222, 222, 0.849)" filter="url(#bbburst-blur-4)"></use><use xlink:href="#bbburst-shape-7" width="32.75041255454852" opacity="0.13585440916684388" transform="matrix(1.197919419621654,-0.35705610776643976,0.35705610776643976,1.197919419621654,590.8092534432953,-235.55788148855083)" fill=" rgba(228, 222, 222, 0.849)" filter="url(#bbburst-blur-3)"></use><use xlink:href="#bbburst-shape-6" width="31.37876909835223" opacity="0.856837574099244" transform="matrix(0.8316986842362712,-0.5552272495471159,0.5552272495471159,0.8316986842362712,218.6717407548209,40.61055568541781)" fill=" rgba(228, 222, 222, 0.849)"></use><use xlink:href="#bbburst-shape-10" width="43.72745456722815" opacity="-0.051986080491266407" transform="matrix(1.6151624990336209,-0.6736097547656722,0.6736097547656722,1.6151624990336209,-245.61919289873225,-559.8413620773097)" fill="none" stroke=" rgba(228, 222, 222, 0.849)" filter="url(#bbburst-blur-4)"></use><use xlink:href="#bbburst-shape-10" width="33.361417506886745" opacity="0.3433174627232063" transform="matrix(0.995491877188857,0.09484683680020979,-0.09484683680020979,0.995491877188857,570.4480616895288,-254.9047896068227)" fill="none" stroke=" rgba(228, 222, 222, 0.849)" filter="url(#bbburst-blur-2)"></use></svg>